<svg width="16" height="16" viewBox="0 0 16 16" fill="none" xmlns="http://www.w3.org/2000/svg">
<g clip-path="url(#clip0_2032_2056)">
<path d="M10.9699 2.97004C11.1108 2.83593 11.2982 2.76179 11.4927 2.76326C11.6872 2.76473 11.8735 2.8417 12.0124 2.97793C12.1512 3.11416 12.2317 3.29899 12.2368 3.49342C12.2419 3.68785 12.1713 3.87667 12.0399 4.02004L6.04991 11.01C5.9813 11.0839 5.8985 11.1432 5.80645 11.1844C5.71439 11.2256 5.61498 11.2478 5.51416 11.2496C5.41334 11.2515 5.31318 11.233 5.21967 11.1953C5.12616 11.1575 5.04121 11.1013 4.96991 11.03L2.32391 8.38404C2.25023 8.31538 2.19112 8.23258 2.15013 8.14058C2.10914 8.04858 2.0871 7.94927 2.08532 7.84857C2.08355 7.74786 2.10207 7.64783 2.13979 7.55445C2.17751 7.46106 2.23366 7.37622 2.30488 7.305C2.37609 7.23379 2.46093 7.17764 2.55432 7.13992C2.6477 7.1022 2.74773 7.08367 2.84844 7.08545C2.94914 7.08723 3.04845 7.10927 3.14045 7.15026C3.23245 7.19125 3.31525 7.25036 3.38391 7.32404L5.47791 9.41704L10.9499 2.99204C10.9561 2.98432 10.9628 2.97698 10.9699 2.97004ZM8.04991 10.11L8.96991 11.03C9.0412 11.1012 9.12608 11.1573 9.2195 11.1949C9.31292 11.2325 9.41296 11.251 9.51366 11.2491C9.61436 11.2472 9.71365 11.2251 9.80561 11.184C9.89757 11.143 9.98032 11.0838 10.0489 11.01L16.0409 4.02004C16.1126 3.94924 16.1693 3.86472 16.2077 3.77152C16.246 3.67832 16.2651 3.57835 16.2639 3.47758C16.2628 3.37682 16.2413 3.27732 16.2008 3.18504C16.1603 3.09276 16.1017 3.00958 16.0283 2.94047C15.955 2.87137 15.8685 2.81775 15.7739 2.78282C15.6794 2.74789 15.5788 2.73237 15.4782 2.73718C15.3775 2.742 15.2789 2.76705 15.1881 2.81084C15.0973 2.85462 15.0163 2.91625 14.9499 2.99204L9.47691 9.41704L8.99191 8.93104L8.04891 10.11H8.04991Z" fill="#1D72D2"/>
</g>
<defs>
<clipPath id="clip0_2032_2056">
<rect width="16" height="16" fill="white"/>
</clipPath>
</defs>
</svg>
