<svg width="51" height="51" viewBox="0 0 51 51" fill="none" xmlns="http://www.w3.org/2000/svg">
<circle cx="25" cy="25" r="25" fill="#EFF2F7"/>
<circle cx="44" cy="44" r="6" fill="#70C63B" stroke="white" stroke-width="2"/>
<path d="M16.7891 31V27.2422L17.9453 25.9219L21.8516 31H24.0234L19.1797 24.7188L23.6484 19.7266H21.5703L16.8594 25.0938H16.7891V19.7266H15.0391V31H16.7891ZM25.1484 19.7266V31H29.125C32.4844 31 34.4609 28.9062 34.4609 25.3438C34.4609 21.7891 32.4766 19.7266 29.125 19.7266H25.1484ZM26.8984 21.2344H28.9609C31.3438 21.2344 32.6719 22.7031 32.6719 25.3594C32.6719 28.0234 31.3516 29.4844 28.9609 29.4844H26.8984V21.2344Z" fill="#8A90A5"/>
</svg>
