<svg width="50" height="50" viewBox="0 0 50 50" fill="none" xmlns="http://www.w3.org/2000/svg">
<circle cx="25" cy="25" r="25" fill="#F1F8FF"/>
<g clip-path="url(#clip0_2032_2083)">
<path d="M25 28.3333C25.388 28.3341 25.7709 28.2445 26.1183 28.0717L27.785 27.2383C28.6345 26.8165 29.1703 25.9485 29.1667 25V22.5275C29.1696 21.5799 28.6338 20.7129 27.785 20.2917L26.1183 19.4584C25.4141 19.1084 24.5867 19.1084 23.8825 19.4584L22.2158 20.2917C21.3667 20.7127 20.8305 21.5797 20.8333 22.5275V25C20.8302 25.9479 21.366 26.8151 22.215 27.2367L23.8817 28.07C24.2289 28.2434 24.6118 28.3336 25 28.3333ZM22.5 25V22.5275C22.5013 22.4425 22.5156 22.3582 22.5425 22.2775L24.3592 23.1858C24.7626 23.3875 25.2374 23.3875 25.6408 23.1858L27.4575 22.2775C27.4844 22.3582 27.4987 22.4425 27.5 22.5275V25C27.5013 25.3162 27.3226 25.6056 27.0392 25.7458L25.3725 26.5792C25.1375 26.6954 24.8617 26.6954 24.6267 26.5792L22.96 25.7458C22.6769 25.6053 22.4985 25.316 22.5 25ZM30.8333 33.3333H28.5758L31.4816 30.6483C35.0615 27.0686 35.0616 21.2646 31.4818 17.6847C27.902 14.1048 22.0981 14.1048 18.5182 17.6845C14.9383 21.2642 14.9383 27.0683 18.518 30.6481C18.5259 30.656 21.4242 33.3333 21.4242 33.3333H19.1667C18.7064 33.3333 18.3333 33.7064 18.3333 34.1667C18.3333 34.6269 18.7064 35 19.1667 35H30.8333C31.2936 35 31.6667 34.6269 31.6667 34.1667C31.6667 33.7065 31.2935 33.3333 30.8333 33.3333ZM19.6967 18.8633C22.6192 15.9277 27.3681 15.9171 30.3037 18.8396C33.2394 21.7621 33.25 26.511 30.3275 29.4467L27.0067 32.5142C25.8732 33.5825 24.1017 33.5763 22.9758 32.5L19.6967 29.47C16.7722 26.5392 16.7723 21.7942 19.6967 18.8633Z" fill="#1D72D2"/>
</g>
<defs>
<clipPath id="clip0_2032_2083">
<rect width="20" height="20" fill="white" transform="translate(15 15)"/>
</clipPath>
</defs>
</svg>
