<svg width="80" height="80" viewBox="0 0 80 80" fill="none" xmlns="http://www.w3.org/2000/svg">
<circle cx="40" cy="40" r="40" fill="#F4FFF4"/>
<g clip-path="url(#clip0_2031_2545)">
<path d="M48.3203 26.1628L33.0803 41.4028C32.4982 41.9818 32.0367 42.6704 31.7226 43.4289C31.4085 44.1874 31.248 45.0006 31.2503 45.8216V47.5003C31.2503 47.8319 31.382 48.1498 31.6164 48.3842C31.8508 48.6186 32.1687 48.7503 32.5003 48.7503H34.179C35 48.7527 35.8132 48.5921 36.5717 48.278C37.3302 47.9639 38.0188 47.5024 38.5978 46.9203L53.8378 31.6803C54.5683 30.948 54.9785 29.9559 54.9785 28.9216C54.9785 27.8872 54.5683 26.8951 53.8378 26.1628C53.0949 25.4527 52.1067 25.0564 51.079 25.0564C50.0513 25.0564 49.0632 25.4527 48.3203 26.1628ZM52.0703 29.9128L36.8303 45.1528C36.1254 45.8534 35.1728 46.2477 34.179 46.2503H33.7503V45.8216C33.7529 44.8278 34.1472 43.8752 34.8478 43.1703L50.0878 27.9303C50.3548 27.6753 50.7098 27.533 51.079 27.533C51.4483 27.533 51.8033 27.6753 52.0703 27.9303C52.3327 28.1935 52.4801 28.5499 52.4801 28.9216C52.4801 29.2932 52.3327 29.6497 52.0703 29.9128Z" fill="#70C63B"/>
<path d="M53.75 36.2238C53.4185 36.2238 53.1005 36.3554 52.8661 36.5899C52.6317 36.8243 52.5 37.1422 52.5 37.4738V43.75H47.5C46.5054 43.75 45.5516 44.1451 44.8484 44.8484C44.1451 45.5516 43.75 46.5054 43.75 47.5V52.5H31.25C30.2554 52.5 29.3016 52.1049 28.5984 51.4017C27.8951 50.6984 27.5 49.7446 27.5 48.75V31.25C27.5 30.2554 27.8951 29.3016 28.5984 28.5984C29.3016 27.8951 30.2554 27.5 31.25 27.5H42.5525C42.884 27.5 43.202 27.3683 43.4364 27.1339C43.6708 26.8995 43.8025 26.5815 43.8025 26.25C43.8025 25.9185 43.6708 25.6005 43.4364 25.3661C43.202 25.1317 42.884 25 42.5525 25H31.25C29.593 25.002 28.0044 25.6611 26.8328 26.8328C25.6611 28.0044 25.002 29.593 25 31.25L25 48.75C25.002 50.407 25.6611 51.9956 26.8328 53.1672C28.0044 54.3389 29.593 54.998 31.25 55H45.4288C46.2499 55.0023 47.0633 54.8418 47.822 54.5277C48.5807 54.2136 49.2696 53.7521 49.8488 53.17L53.1688 49.8475C53.7509 49.2686 54.2125 48.58 54.5269 47.8215C54.8412 47.063 55.002 46.2498 55 45.4288V37.4738C55 37.1422 54.8683 36.8243 54.6339 36.5899C54.3995 36.3554 54.0815 36.2238 53.75 36.2238ZM48.0813 51.4025C47.5788 51.9038 46.9433 52.2508 46.25 52.4025V47.5C46.25 47.1685 46.3817 46.8505 46.6161 46.6161C46.8505 46.3817 47.1685 46.25 47.5 46.25H52.4063C52.2516 46.9419 51.905 47.5762 51.4063 48.08L48.0813 51.4025Z" fill="#70C63B"/>
</g>
<defs>
<clipPath id="clip0_2031_2545">
<rect width="30" height="30" fill="white" transform="translate(25 25)"/>
</clipPath>
</defs>
</svg>
