<svg width="80" height="80" viewBox="0 0 80 80" fill="none" xmlns="http://www.w3.org/2000/svg">
<circle cx="40" cy="40" r="40" fill="#F1F8FF"/>
<g clip-path="url(#clip0_2031_2523)">
<path d="M49.9375 31.9205L45.58 27.563C44.7695 26.7481 43.8054 26.102 42.7435 25.6622C41.6817 25.2223 40.5431 24.9975 39.3938 25.0005H33.75C32.093 25.0025 30.5044 25.6616 29.3328 26.8333C28.1611 28.005 27.502 29.5935 27.5 31.2505V48.7505C27.502 50.4075 28.1611 51.9961 29.3328 53.1677C30.5044 54.3394 32.093 54.9985 33.75 55.0005H46.25C47.907 54.9985 49.4956 54.3394 50.6672 53.1677C51.8389 51.9961 52.498 50.4075 52.5 48.7505V38.1068C52.5031 36.9574 52.2782 35.8189 51.8383 34.757C51.3985 33.6951 50.7524 32.731 49.9375 31.9205ZM48.17 33.688C48.5513 34.081 48.8795 34.5223 49.1462 35.0005H43.75C43.4185 35.0005 43.1005 34.8688 42.8661 34.6344C42.6317 34.4 42.5 34.082 42.5 33.7505V28.3543C42.9782 28.621 43.4195 28.9492 43.8125 29.3305L48.17 33.688ZM50 48.7505C50 49.7451 49.6049 50.6989 48.9017 51.4022C48.1984 52.1054 47.2446 52.5005 46.25 52.5005H33.75C32.7554 52.5005 31.8016 52.1054 31.0983 51.4022C30.3951 50.6989 30 49.7451 30 48.7505V31.2505C30 30.256 30.3951 29.3021 31.0983 28.5989C31.8016 27.8956 32.7554 27.5005 33.75 27.5005H39.3938C39.6 27.5005 39.7975 27.5405 40 27.5593V33.7505C40 34.7451 40.3951 35.6989 41.0983 36.4022C41.8016 37.1054 42.7554 37.5005 43.75 37.5005H49.9412C49.96 37.703 50 37.9005 50 38.1068V48.7505ZM45.905 41.6393C46.1332 41.8794 46.2568 42.2003 46.2486 42.5315C46.2404 42.8626 46.1011 43.177 45.8612 43.4055L41.375 47.673C40.6698 48.3671 39.7189 48.7544 38.7294 48.7504C37.7399 48.7464 36.7921 48.3515 36.0925 47.6518L34.1675 45.9343C33.9199 45.7135 33.7701 45.4034 33.7511 45.0721C33.7417 44.9081 33.7647 44.7438 33.8187 44.5887C33.8728 44.4336 33.9569 44.2906 34.0662 44.168C34.1756 44.0454 34.308 43.9455 34.4559 43.8741C34.6038 43.8026 34.7644 43.761 34.9284 43.7516C35.2596 43.7326 35.5849 43.846 35.8325 44.0668L37.8138 45.8343C37.9272 45.9616 38.0655 46.0645 38.2201 46.1364C38.3747 46.2083 38.5425 46.2478 38.7129 46.2525C38.8834 46.2572 39.0531 46.2269 39.2114 46.1636C39.3698 46.1003 39.5135 46.0052 39.6337 45.8843L44.1338 41.5955C44.2527 41.4817 44.393 41.3926 44.5466 41.3332C44.7001 41.2738 44.8639 41.2453 45.0285 41.2494C45.193 41.2534 45.3552 41.29 45.5056 41.3569C45.656 41.4238 45.7918 41.5198 45.905 41.6393Z" fill="#1D72D2"/>
</g>
<defs>
<clipPath id="clip0_2031_2523">
<rect width="30" height="30" fill="white" transform="translate(25 25)"/>
</clipPath>
</defs>
</svg>
