<svg width="80" height="80" viewBox="0 0 80 80" fill="none" xmlns="http://www.w3.org/2000/svg">
<circle cx="40" cy="40" r="40" fill="#FFFAE7"/>
<g clip-path="url(#clip0_2031_2533)">
<path d="M54.634 52.8657L53.2878 51.5194L51.1253 49.3607L54.6115 45.8744C54.7599 45.7258 54.8685 45.5422 54.9271 45.3405C54.9858 45.1389 54.9927 44.9257 54.9473 44.7206C54.9018 44.5156 54.8054 44.3253 54.667 44.1674C54.5286 44.0094 54.3526 43.8889 54.1553 43.8169L42.944 39.7494C42.4974 39.588 42.0141 39.5572 41.5506 39.6604C41.0871 39.7637 40.6627 39.9968 40.3268 40.3325C39.991 40.6682 39.7577 41.0926 39.6543 41.556C39.5508 42.0195 39.5815 42.5028 39.7428 42.9494L43.8215 54.1607C43.8931 54.3582 44.0134 54.5344 44.1711 54.6732C44.3288 54.8119 44.519 54.9086 44.724 54.9544C44.8131 54.9738 44.9041 54.9835 44.9953 54.9832C45.3268 54.9831 45.6446 54.8514 45.879 54.6169L49.3615 51.1244L51.5203 53.2832L52.8665 54.6294C53.1023 54.8571 53.418 54.9831 53.7458 54.9803C54.0735 54.9774 54.387 54.846 54.6188 54.6142C54.8505 54.3825 54.982 54.0689 54.9849 53.7412C54.9877 53.4134 54.8617 53.0977 54.634 52.8619V52.8657ZM45.5003 51.4557L42.0953 42.0932L51.4578 45.4982L45.5003 51.4557Z" fill="#ECC744"/>
<path d="M37.5 50C35.0277 50 32.611 49.2669 30.5554 47.8934C28.4998 46.5199 26.8976 44.5676 25.9515 42.2836C25.0054 39.9995 24.7579 37.4861 25.2402 35.0614C25.7225 32.6366 26.913 30.4093 28.6612 28.6612C30.4093 26.913 32.6366 25.7225 35.0614 25.2402C37.4861 24.7579 39.9995 25.0054 42.2836 25.9515C44.5676 26.8976 46.5199 28.4998 47.8934 30.5554C49.2669 32.611 50 35.0277 50 37.5C50 37.8315 49.8683 38.1495 49.6339 38.3839C49.3995 38.6183 49.0815 38.75 48.75 38.75C48.4185 38.75 48.1005 38.6183 47.8661 38.3839C47.6317 38.1495 47.5 37.8315 47.5 37.5C47.5 35.5222 46.9135 33.5888 45.8147 31.9443C44.7159 30.2998 43.1541 29.0181 41.3268 28.2612C39.4996 27.5043 37.4889 27.3063 35.5491 27.6922C33.6093 28.078 31.8275 29.0304 30.4289 30.4289C29.0304 31.8275 28.078 33.6093 27.6922 35.5491C27.3063 37.4889 27.5043 39.4996 28.2612 41.3268C29.0181 43.1541 30.2998 44.7159 31.9443 45.8147C33.5888 46.9135 35.5222 47.5 37.5 47.5C37.8315 47.5 38.1495 47.6317 38.3839 47.8661C38.6183 48.1005 38.75 48.4185 38.75 48.75C38.75 49.0815 38.6183 49.3995 38.3839 49.6339C38.1495 49.8683 37.8315 50 37.5 50Z" fill="#ECC744"/>
<path d="M35.1049 44.5252C34.9406 44.5253 34.778 44.4931 34.6262 44.4302C33.4872 43.9572 32.4825 43.2106 31.701 42.2566C30.9195 41.3025 30.3853 40.1705 30.1458 38.9607C29.9062 37.751 29.9687 36.5008 30.3277 35.3209C30.6866 34.1411 31.331 33.0679 32.2037 32.1965C33.0764 31.3252 34.1505 30.6824 35.3309 30.3253C36.5114 29.9681 37.7616 29.9076 38.971 30.149C40.1804 30.3904 41.3116 30.9263 42.2645 31.7093C43.2173 32.4922 43.9624 33.4981 44.4337 34.6377C44.4997 34.79 44.5348 34.9539 44.5368 35.1199C44.5389 35.2858 44.5079 35.4505 44.4456 35.6044C44.3833 35.7582 44.291 35.8981 44.174 36.0159C44.0571 36.1337 43.9179 36.227 43.7645 36.2904C43.6111 36.3538 43.4467 36.3861 43.2807 36.3852C43.1147 36.3844 42.9506 36.3505 42.7978 36.2856C42.6451 36.2206 42.5068 36.1259 42.3911 36.007C42.2753 35.888 42.1844 35.7472 42.1237 35.5927C41.8087 34.8337 41.3116 34.1639 40.6761 33.6427C40.0407 33.1216 39.2866 32.7651 38.4806 32.6048C37.6746 32.4445 36.8414 32.4854 36.055 32.7237C35.2685 32.9621 34.5529 33.3907 33.9715 33.9715C33.3901 34.5524 32.9609 35.2676 32.7217 36.0538C32.4826 36.8401 32.4409 37.6731 32.6005 38.4793C32.76 39.2855 33.1158 40.0399 33.6363 40.6759C34.1569 41.3118 34.8261 41.8096 35.5849 42.1252C35.8523 42.2359 36.0731 42.4359 36.2094 42.6912C36.3458 42.9464 36.3894 43.2411 36.3328 43.5249C36.2761 43.8087 36.1228 44.0641 35.8988 44.2474C35.6749 44.4307 35.3943 44.5307 35.1049 44.5302V44.5252Z" fill="#ECC744"/>
</g>
<defs>
<clipPath id="clip0_2031_2533">
<rect width="30" height="30" fill="white" transform="translate(25 25)"/>
</clipPath>
</defs>
</svg>
