<svg width="54" height="54" viewBox="0 0 54 54" fill="none" xmlns="http://www.w3.org/2000/svg">
<g filter="url(#filter0_d_2031_2424)">
<rect x="4" y="2" width="46" height="46" rx="23" fill="white" shape-rendering="crispEdges"/>
<rect x="4.5" y="2.5" width="45" height="45" rx="22.5" stroke="#EFF2F7" shape-rendering="crispEdges"/>
<g clip-path="url(#clip0_2031_2424)">
<path d="M37 24.3727C36.8794 22.4227 36.1909 20.5507 35.0193 18.9872C33.8477 17.4238 32.2441 16.2375 30.4064 15.5744C28.5687 14.9113 26.577 14.8005 24.6771 15.2556C22.7771 15.7108 21.0519 16.712 19.7141 18.1357C18.3763 19.5595 17.4843 21.3437 17.1482 23.2683C16.8122 25.1929 17.0466 27.1737 17.8227 28.9667C18.5988 30.7596 19.8826 32.2862 21.5159 33.3584C23.1491 34.4305 25.0604 35.0012 27.0141 35.0002H32.8333C33.938 34.9991 34.9972 34.5598 35.7784 33.7786C36.5595 32.9975 36.9989 31.9383 37 30.8336V24.3727ZM35.3333 30.8336C35.3333 31.4966 35.0699 32.1325 34.6011 32.6013C34.1322 33.0702 33.4963 33.3336 32.8333 33.3336H27.0141C25.8382 33.333 24.6757 33.0847 23.6022 32.6046C22.5288 32.1246 21.5685 31.4238 20.7841 30.5477C19.9959 29.6721 19.4041 28.6381 19.0482 27.515C18.6923 26.392 18.5807 25.2058 18.7208 24.0361C18.942 22.191 19.771 20.472 21.077 19.1502C22.383 17.8283 24.0919 16.9787 25.9341 16.7352C26.2935 16.6902 26.6553 16.6674 27.0175 16.6669C28.9595 16.6616 30.8415 17.3401 32.3333 18.5836C33.2046 19.3077 33.9197 20.2012 34.4354 21.2099C34.9511 22.2186 35.2566 23.3216 35.3333 24.4519V30.8336Z" fill="#8A90A5"/>
<path d="M23.6666 22.4999H26.9999C27.2209 22.4999 27.4329 22.4121 27.5892 22.2558C27.7455 22.0996 27.8333 21.8876 27.8333 21.6666C27.8333 21.4456 27.7455 21.2336 27.5892 21.0773C27.4329 20.921 27.2209 20.8333 26.9999 20.8333H23.6666C23.4456 20.8333 23.2336 20.921 23.0773 21.0773C22.921 21.2336 22.8333 21.4456 22.8333 21.6666C22.8333 21.8876 22.921 22.0996 23.0773 22.2558C23.2336 22.4121 23.4456 22.4999 23.6666 22.4999Z" fill="#8A90A5"/>
<path d="M30.3333 24.1667H23.6666C23.4456 24.1667 23.2336 24.2545 23.0773 24.4108C22.921 24.5671 22.8333 24.7791 22.8333 25.0001C22.8333 25.2211 22.921 25.4331 23.0773 25.5893C23.2336 25.7456 23.4456 25.8334 23.6666 25.8334H30.3333C30.5543 25.8334 30.7662 25.7456 30.9225 25.5893C31.0788 25.4331 31.1666 25.2211 31.1666 25.0001C31.1666 24.7791 31.0788 24.5671 30.9225 24.4108C30.7662 24.2545 30.5543 24.1667 30.3333 24.1667Z" fill="#8A90A5"/>
<path d="M30.3333 27.5H23.6666C23.4456 27.5 23.2336 27.5878 23.0773 27.7441C22.921 27.9004 22.8333 28.1123 22.8333 28.3333C22.8333 28.5544 22.921 28.7663 23.0773 28.9226C23.2336 29.0789 23.4456 29.1667 23.6666 29.1667H30.3333C30.5543 29.1667 30.7662 29.0789 30.9225 28.9226C31.0788 28.7663 31.1666 28.5544 31.1666 28.3333C31.1666 28.1123 31.0788 27.9004 30.9225 27.7441C30.7662 27.5878 30.5543 27.5 30.3333 27.5Z" fill="#8A90A5"/>
</g>
<circle cx="44" cy="9" r="5" fill="#1D72D2"/>
</g>
<defs>
<filter id="filter0_d_2031_2424" x="0" y="0" width="54" height="54" filterUnits="userSpaceOnUse" color-interpolation-filters="sRGB">
<feFlood flood-opacity="0" result="BackgroundImageFix"/>
<feColorMatrix in="SourceAlpha" type="matrix" values="0 0 0 0 0 0 0 0 0 0 0 0 0 0 0 0 0 0 127 0" result="hardAlpha"/>
<feOffset dy="2"/>
<feGaussianBlur stdDeviation="2"/>
<feComposite in2="hardAlpha" operator="out"/>
<feColorMatrix type="matrix" values="0 0 0 0 0.185937 0 0 0 0 0.369351 0 0 0 0 0.583333 0 0 0 0.07 0"/>
<feBlend mode="normal" in2="BackgroundImageFix" result="effect1_dropShadow_2031_2424"/>
<feBlend mode="normal" in="SourceGraphic" in2="effect1_dropShadow_2031_2424" result="shape"/>
</filter>
<clipPath id="clip0_2031_2424">
<rect width="20" height="20" fill="white" transform="translate(17 15)"/>
</clipPath>
</defs>
</svg>
