<svg width="54" height="54" viewBox="0 0 54 54" fill="none" xmlns="http://www.w3.org/2000/svg">
<g filter="url(#filter0_d_2031_2419)">
<rect x="4" y="2" width="46" height="46" rx="23" fill="white" shape-rendering="crispEdges"/>
<rect x="4.5" y="2.5" width="45" height="45" rx="22.5" stroke="#EFF2F7" shape-rendering="crispEdges"/>
<g clip-path="url(#clip0_2031_2419)">
<path d="M35.7958 26.3851L34.2125 20.6884C33.7484 19.0195 32.7398 17.5536 31.3469 16.5238C29.9541 15.4939 28.257 14.9592 26.5254 15.0046C24.7938 15.05 23.127 15.6729 21.79 16.7744C20.4531 17.8758 19.5227 19.3925 19.1467 21.0834L17.9208 26.5959C17.7854 27.205 17.7885 27.8368 17.93 28.4445C18.0714 29.0522 18.3475 29.6205 18.738 30.1072C19.1284 30.5939 19.6232 30.9868 20.1857 31.2567C20.7483 31.5266 21.3643 31.6668 21.9883 31.6667H22.9167C23.1079 32.6086 23.6189 33.4555 24.3631 34.0637C25.1073 34.672 26.0389 35.0042 27 35.0042C27.9611 35.0042 28.8927 34.672 29.6369 34.0637C30.381 33.4555 30.8921 32.6086 31.0833 31.6667H31.7817C32.424 31.6668 33.0576 31.5183 33.6331 31.2329C34.2086 30.9476 34.7103 30.533 35.099 30.0216C35.4877 29.5103 35.753 28.9159 35.874 28.2851C35.995 27.6543 35.9685 27.004 35.7967 26.3851H35.7958ZM27 33.3334C26.4848 33.3313 25.9828 33.17 25.5627 32.8717C25.1427 32.5733 24.8251 32.1525 24.6533 31.6667H29.3467C29.1749 32.1525 28.8573 32.5733 28.4372 32.8717C28.0172 33.17 27.5152 33.3313 27 33.3334ZM33.7717 29.0126C33.5394 29.3206 33.2386 29.5703 32.893 29.7417C32.5474 29.9131 32.1666 30.0016 31.7808 30.0001H21.9883C21.614 30 21.2444 29.9159 20.9069 29.7539C20.5695 29.5919 20.2727 29.3562 20.0385 29.0641C19.8042 28.7721 19.6386 28.4312 19.5538 28.0666C19.469 27.702 19.4671 27.323 19.5483 26.9576L20.7733 21.4442C21.0686 20.1161 21.7994 18.9247 22.8495 18.0596C23.8997 17.1945 25.2088 16.7052 26.569 16.6696C27.9291 16.6339 29.2621 17.054 30.3561 17.863C31.4501 18.6719 32.2422 19.8234 32.6067 21.1342L34.19 26.8309C34.2946 27.202 34.3113 27.5925 34.2387 27.9712C34.166 28.3499 34.0061 28.7064 33.7717 29.0126Z" fill="#8A90A5"/>
</g>
<circle cx="44" cy="9" r="5" fill="#1D72D2"/>
</g>
<defs>
<filter id="filter0_d_2031_2419" x="0" y="0" width="54" height="54" filterUnits="userSpaceOnUse" color-interpolation-filters="sRGB">
<feFlood flood-opacity="0" result="BackgroundImageFix"/>
<feColorMatrix in="SourceAlpha" type="matrix" values="0 0 0 0 0 0 0 0 0 0 0 0 0 0 0 0 0 0 127 0" result="hardAlpha"/>
<feOffset dy="2"/>
<feGaussianBlur stdDeviation="2"/>
<feComposite in2="hardAlpha" operator="out"/>
<feColorMatrix type="matrix" values="0 0 0 0 0.185937 0 0 0 0 0.369351 0 0 0 0 0.583333 0 0 0 0.07 0"/>
<feBlend mode="normal" in2="BackgroundImageFix" result="effect1_dropShadow_2031_2419"/>
<feBlend mode="normal" in="SourceGraphic" in2="effect1_dropShadow_2031_2419" result="shape"/>
</filter>
<clipPath id="clip0_2031_2419">
<rect width="20" height="20" fill="white" transform="translate(17 15)"/>
</clipPath>
</defs>
</svg>
