<svg width="50" height="50" viewBox="0 0 50 50" fill="none" xmlns="http://www.w3.org/2000/svg">
<circle cx="25" cy="25" r="25" fill="#F1F8FF"/>
<path d="M34.2308 32.6154L33.4708 33.4904C26.6458 40.0238 10.0375 23.4204 16.4708 16.5738L17.4292 15.7404C17.914 15.2706 18.5644 15.0108 19.2395 15.0172C19.9146 15.0236 20.56 15.2957 21.0358 15.7746C21.0617 15.7996 22.6042 17.8054 22.6042 17.8054C23.0624 18.2865 23.3176 18.9256 23.3168 19.59C23.316 20.2544 23.0593 20.8929 22.6 21.3729L21.6333 22.5829C22.1674 23.8809 22.9526 25.0605 23.944 26.054C24.9353 27.0475 26.1132 27.8353 27.41 28.3721L28.63 27.4013C29.1099 26.9415 29.7484 26.6843 30.413 26.6833C31.0776 26.6822 31.717 26.9372 32.1983 27.3954C32.1983 27.3954 34.2042 28.9396 34.23 28.9654C34.7136 29.4496 34.9852 30.1059 34.9854 30.7903C34.9855 31.4746 34.7142 32.131 34.2308 32.6154ZM33.0842 30.1796C33.0842 30.1796 31.0842 28.6446 31.0633 28.6196C30.8895 28.4535 30.6584 28.3608 30.4179 28.3608C30.1775 28.3608 29.9463 28.4535 29.7725 28.6196C29.7508 28.6421 28.0692 29.9821 28.0692 29.9821C27.9558 30.0721 27.821 30.1311 27.6779 30.1531C27.5349 30.1752 27.3886 30.1596 27.2533 30.1079C25.5728 29.4828 24.0465 28.5035 22.7779 27.2365C21.5092 25.9695 20.528 24.4443 19.9008 22.7646C19.8461 22.628 19.8285 22.4792 19.8499 22.3336C19.8712 22.188 19.9308 22.0506 20.0225 21.9354C20.0225 21.9354 21.3617 20.2546 21.385 20.2321C21.5555 20.0604 21.6512 19.8282 21.6512 19.5863C21.6512 19.3443 21.5555 19.1121 21.385 18.9404C21.3583 18.9163 19.8242 16.9213 19.8242 16.9213C19.65 16.7649 19.4227 16.6811 19.1887 16.687C18.9548 16.6929 18.7319 16.788 18.5658 16.9529L17.6067 17.7904C12.9067 23.4396 27.2992 37.0346 32.2508 32.3546L33.0108 31.4796C33.1896 31.3149 33.2973 31.0871 33.311 30.8445C33.3247 30.6018 33.2433 30.3633 33.0842 30.1796Z" fill="#1D72D2"/>
</svg>
