<svg width="50" height="50" viewBox="0 0 50 50" fill="none" xmlns="http://www.w3.org/2000/svg">
<circle cx="25" cy="25" r="25" fill="#F1F8FF"/>
<g clip-path="url(#clip0_2032_2484)">
<path d="M34.756 33.577L33.8585 32.6795L32.4168 31.2404L34.741 28.9162C34.8399 28.8171 34.9123 28.6947 34.9514 28.5603C34.9905 28.4258 34.9952 28.2837 34.9649 28.147C34.9345 28.0103 34.8703 27.8835 34.778 27.7782C34.6857 27.6729 34.5684 27.5925 34.4368 27.5445L26.9627 24.8329C26.665 24.7253 26.3428 24.7047 26.0338 24.7735C25.7248 24.8424 25.4418 24.9978 25.2179 25.2216C24.994 25.4454 24.8385 25.7283 24.7695 26.0373C24.7006 26.3462 24.721 26.6685 24.8285 26.9662L27.5477 34.4404C27.5954 34.572 27.6756 34.6895 27.7807 34.782C27.8859 34.8745 28.0127 34.939 28.1493 34.9695C28.2087 34.9825 28.2694 34.9889 28.3302 34.9887C28.5512 34.9887 28.7631 34.9008 28.9193 34.7445L31.241 32.4162L32.6802 33.8554L33.5777 34.7529C33.7348 34.9047 33.9453 34.9887 34.1638 34.9868C34.3823 34.9849 34.5914 34.8972 34.7459 34.7427C34.9004 34.5882 34.988 34.3792 34.9899 34.1607C34.9918 33.9422 34.9078 33.7317 34.756 33.5745V33.577ZM28.6668 32.637L26.3968 26.3954L32.6385 28.6654L28.6668 32.637Z" fill="#1D72D2"/>
<path d="M23.3333 31.6667C21.6852 31.6667 20.074 31.1779 18.7036 30.2622C17.3332 29.3466 16.2651 28.0451 15.6343 26.5224C15.0036 24.9996 14.8386 23.3241 15.1601 21.7076C15.4817 20.0911 16.2753 18.6062 17.4408 17.4408C18.6062 16.2753 20.0911 15.4817 21.7076 15.1601C23.3241 14.8386 24.9996 15.0036 26.5224 15.6343C28.0451 16.2651 29.3466 17.3332 30.2622 18.7036C31.1779 20.074 31.6667 21.6852 31.6667 23.3333C31.6667 23.5544 31.5789 23.7663 31.4226 23.9226C31.2663 24.0789 31.0543 24.1667 30.8333 24.1667C30.6123 24.1667 30.4004 24.0789 30.2441 23.9226C30.0878 23.7663 30 23.5544 30 23.3333C30 22.0148 29.609 20.7259 28.8765 19.6295C28.1439 18.5332 27.1027 17.6787 25.8846 17.1741C24.6664 16.6696 23.3259 16.5375 22.0327 16.7948C20.7395 17.052 19.5516 17.6869 18.6193 18.6193C17.6869 19.5516 17.052 20.7395 16.7948 22.0327C16.5375 23.3259 16.6696 24.6664 17.1741 25.8846C17.6787 27.1027 18.5332 28.1439 19.6295 28.8765C20.7259 29.609 22.0148 30 23.3333 30C23.5544 30 23.7663 30.0878 23.9226 30.2441C24.0789 30.4004 24.1667 30.6123 24.1667 30.8333C24.1667 31.0543 24.0789 31.2663 23.9226 31.4226C23.7663 31.5789 23.5544 31.6667 23.3333 31.6667Z" fill="#1D72D2"/>
<path d="M21.7365 28.0168C21.627 28.0169 21.5186 27.9954 21.4174 27.9535C20.6581 27.6381 19.9883 27.1404 19.4673 26.5044C18.9463 25.8684 18.5901 25.1137 18.4304 24.3072C18.2707 23.5006 18.3124 22.6672 18.5517 21.8806C18.791 21.094 19.2206 20.3786 19.8024 19.7977C20.3842 19.2168 21.1003 18.7883 21.8872 18.5502C22.6742 18.3121 23.5077 18.2717 24.3139 18.4327C25.1202 18.5936 25.8743 18.9509 26.5096 19.4729C27.1448 19.9948 27.6415 20.6654 27.9557 21.4252C27.9997 21.5267 28.0231 21.6359 28.0245 21.7466C28.0258 21.8572 28.0052 21.967 27.9636 22.0696C27.9221 22.1721 27.8606 22.2654 27.7826 22.3439C27.7047 22.4225 27.6119 22.4847 27.5096 22.527C27.4073 22.5692 27.2977 22.5907 27.187 22.5902C27.0764 22.5896 26.967 22.567 26.8651 22.5237C26.7633 22.4804 26.6711 22.4173 26.594 22.338C26.5168 22.2587 26.4562 22.1648 26.4157 22.0618C26.2058 21.5558 25.8743 21.1093 25.4507 20.7618C25.0271 20.4144 24.5243 20.1767 23.987 20.0699C23.4496 19.963 22.8942 19.9902 22.3699 20.1492C21.8456 20.3081 21.3685 20.5938 20.9809 20.981C20.5933 21.3682 20.3072 21.845 20.1477 22.3692C19.9883 22.8934 19.9605 23.4488 20.0669 23.9862C20.1732 24.5237 20.4104 25.0266 20.7575 25.4506C21.1045 25.8745 21.5507 26.2064 22.0565 26.4168C22.2348 26.4906 22.382 26.6239 22.4729 26.7941C22.5638 26.9643 22.5929 27.1607 22.5551 27.3499C22.5173 27.5391 22.4151 27.7094 22.2658 27.8316C22.1165 27.9538 21.9295 28.0205 21.7365 28.0202V28.0168Z" fill="#1D72D2"/>
</g>
<defs>
<clipPath id="clip0_2032_2484">
<rect width="20" height="20" fill="white" transform="translate(15 15)"/>
</clipPath>
</defs>
</svg>
