<svg width="40" height="40" viewBox="0 0 40 40" fill="none" xmlns="http://www.w3.org/2000/svg">
<ellipse cx="20" cy="20" rx="20" ry="20" transform="rotate(-180 20 20)" fill="white"/>
<path d="M27.762 15.2917C27.2053 15.5384 26.6073 15.705 25.9786 15.7804C26.6273 15.3922 27.1126 14.7814 27.344 14.0617C26.7345 14.4237 26.0675 14.6785 25.372 14.815C24.9042 14.3156 24.2847 13.9846 23.6095 13.8734C22.9344 13.7621 22.2414 13.8769 21.6381 14.1999C21.0349 14.5229 20.5552 15.036 20.2734 15.6595C19.9917 16.2831 19.9237 16.9822 20.08 17.6484C18.8451 17.5864 17.6371 17.2654 16.5343 16.7063C15.4314 16.1472 14.4585 15.3625 13.6786 14.403C13.412 14.863 13.2586 15.3964 13.2586 15.9644C13.2583 16.4757 13.3843 16.9792 13.6252 17.4302C13.8662 17.8812 14.2147 18.2657 14.64 18.5497C14.1468 18.534 13.6645 18.4008 13.2333 18.161V18.201C13.2333 18.9182 13.4813 19.6133 13.9354 20.1684C14.3895 20.7235 15.0217 21.1043 15.7246 21.2464C15.2672 21.3702 14.7875 21.3884 14.322 21.2997C14.5203 21.9168 14.9066 22.4564 15.4269 22.843C15.9471 23.2296 16.5752 23.4438 17.2233 23.4557C16.1232 24.3193 14.7646 24.7878 13.366 24.7857C13.1182 24.7858 12.8707 24.7713 12.6246 24.7424C14.0443 25.6552 15.6969 26.1396 17.3846 26.1377C23.098 26.1377 26.2213 21.4057 26.2213 17.3017C26.2213 17.1684 26.218 17.0337 26.212 16.9004C26.8195 16.461 27.3439 15.917 27.7606 15.2937L27.762 15.2917Z" fill="#1D72D2"/>
</svg>
