<svg width="64" height="64" viewBox="0 0 64 64" fill="none" xmlns="http://www.w3.org/2000/svg">
<g filter="url(#filter0_d_2001_33)">
<ellipse cx="32" cy="25" rx="20" ry="20" transform="rotate(-180 32 25)" fill="#1D72D2"/>
</g>
<g clip-path="url(#clip0_2001_33)">
<path d="M35.2551 17.9878L35.2568 17.9879C36.0895 18.027 36.5666 18.1673 36.8996 18.2981M35.2551 17.9878L36.718 18.764M35.2551 17.9878C34.4221 17.9516 34.1518 17.9405 32.1514 17.94L32.1214 17.92H31.97C29.8547 17.92 29.5778 17.9298 28.7458 17.9592L28.713 17.9603L28.713 17.9602L28.7051 17.9607C27.8763 18.0032 27.4028 18.1432 27.0718 18.2734C26.6185 18.4409 26.2991 18.6638 25.9771 18.9858C25.6536 19.3093 25.4314 19.6281 25.2634 20.0821C25.1335 20.4139 24.9945 20.8957 24.9513 21.7233L24.9513 21.7233L24.951 21.7317L24.9495 21.7749C24.9203 22.599 24.91 22.8919 24.91 24.99C24.91 27.0903 24.9204 27.3806 24.9496 28.1978L24.951 28.2372L24.9509 28.2372L24.9513 28.2454C24.9945 29.0723 25.1333 29.5547 25.2631 29.8866C25.4155 30.3016 25.6599 30.6767 25.9779 30.9838C26.2854 31.2991 26.6589 31.5423 27.0717 31.6958C27.4033 31.8256 27.8858 31.9655 28.7147 32.0087L28.7175 32.0088C29.5775 32.0487 29.8363 32.0587 31.98 32.0587C34.1225 32.0587 34.3812 32.05 35.2417 32.0115L35.242 32.0115C36.0728 31.9739 36.5561 31.8329 36.8871 31.704M35.2551 17.9878L35.2193 31.512M36.8996 18.2981C36.9 18.2983 36.9005 18.2985 36.901 18.2987L36.718 18.764M36.8996 18.2981C36.8991 18.2979 36.8986 18.2978 36.8981 18.2976L36.718 18.764M36.8996 18.2981C37.3385 18.4678 37.662 18.6792 37.9916 19.0065L37.9933 19.0082C38.3219 19.3376 38.5335 19.6626 38.7031 20.1019M36.718 18.764C37.0927 18.9087 37.358 19.082 37.6393 19.3613C37.9187 19.6413 38.092 19.9073 38.2367 20.282M38.7031 20.1019C38.703 20.1016 38.7028 20.1012 38.7027 20.1009L38.2367 20.282M38.7031 20.1019L38.2367 20.282M38.7031 20.1019C38.8316 20.4328 38.9737 20.9095 39.0115 21.744L39.0115 21.7442C39.05 22.5994 39.0587 22.8616 39.0587 25C39.0587 27.139 39.0487 27.4019 39.0088 28.2566L39.0087 28.2594C38.9654 29.0899 38.8248 29.5655 38.6956 29.8969M38.2367 20.282C38.346 20.5633 38.4767 20.9867 38.512 21.7667C38.55 22.6107 38.5587 22.864 38.5587 25C38.5587 27.136 38.5487 27.39 38.5093 28.2333C38.4687 29.0133 38.3387 29.4367 38.2287 29.718M38.6956 29.8969C38.696 29.8957 38.6964 29.8946 38.6969 29.8935L38.2287 29.718M38.6956 29.8969C38.6952 29.8979 38.6948 29.899 38.6943 29.9001L38.2287 29.718M38.6956 29.8969C38.5404 30.3094 38.2974 30.6832 37.9833 30.9925M38.2287 29.718C38.0985 30.0652 37.894 30.3796 37.6293 30.6393M37.6293 30.6393L37.9871 30.9886C37.9859 30.9899 37.9846 30.9912 37.9833 30.9925M37.6293 30.6393C37.3708 30.9042 37.0565 31.1082 36.7093 31.2367M37.6293 30.6393L37.9795 30.9962C37.9808 30.995 37.9821 30.9937 37.9833 30.9925M37.9833 30.9925C37.6747 31.3074 37.3004 31.5504 36.8871 31.704M36.7093 31.2367L36.8912 31.7024C36.8898 31.703 36.8885 31.7035 36.8871 31.704M36.7093 31.2367C36.4293 31.346 35.9993 31.4767 35.2193 31.512M36.7093 31.2367L36.8828 31.7056C36.8842 31.7051 36.8857 31.7046 36.8871 31.704M35.2193 31.512C34.37 31.55 34.12 31.5587 31.98 31.5587C29.8393 31.5587 29.5893 31.5487 28.7407 31.5093L35.2193 31.512ZM39.952 21.702L39.4525 21.7242C39.4525 21.7244 39.4525 21.7246 39.4525 21.7247C39.4525 21.725 39.4525 21.7252 39.4526 21.7255L39.952 21.702ZM24.5475 28.2758C24.5475 28.2755 24.5475 28.2753 24.5475 28.2751C24.5475 28.2749 24.5475 28.2747 24.5474 28.2745L24.048 28.298L24.5475 28.2758ZM35.2758 32.4525C35.2756 32.4525 35.2754 32.4525 35.2752 32.4525C35.275 32.4525 35.2748 32.4525 35.2745 32.4526L35.298 32.952L35.2758 32.4525ZM39.9519 28.298L39.952 28.298L39.9519 28.298ZM30.6193 21.6666C31.057 21.4853 31.5262 21.392 32 21.392C32.9569 21.392 33.8746 21.7721 34.5512 22.4488C35.2279 23.1254 35.608 24.0431 35.608 25C35.608 25.9569 35.2279 26.8746 34.5512 27.5512C33.8746 28.2279 32.9569 28.608 32 28.608C31.5262 28.608 31.057 28.5147 30.6193 28.3334C30.1815 28.152 29.7838 27.8863 29.4488 27.5512C29.1137 27.2162 28.848 26.8185 28.6666 26.3807C28.4853 25.943 28.392 25.4738 28.392 25C28.392 24.5262 28.4853 24.057 28.6666 23.6193C28.848 23.1815 29.1137 22.7838 29.4488 22.4488C29.7838 22.1137 30.1815 21.848 30.6193 21.6666ZM28.8333 25C28.8333 26.7495 30.2505 28.1667 32 28.1667C33.7495 28.1667 35.1667 26.7495 35.1667 25C35.1667 23.2505 33.7495 21.8333 32 21.8333C30.2505 21.8333 28.8333 23.2505 28.8333 25ZM36.5959 20.4047C36.68 20.4888 36.7282 20.6021 36.7306 20.7207C36.7239 20.8364 36.6739 20.9454 36.5903 21.026C36.5044 21.1087 36.3899 21.1549 36.2707 21.1549C36.1515 21.1549 36.0369 21.1087 35.9511 21.026C35.8674 20.9454 35.8174 20.8364 35.8108 20.7207C35.8132 20.6021 35.8613 20.4888 35.9454 20.4047C36.0317 20.3185 36.1487 20.27 36.2707 20.27C36.3927 20.27 36.5097 20.3185 36.5959 20.4047Z" fill="#169FED" stroke="white"/>
</g>
<defs>
<filter id="filter0_d_2001_33" x="0" y="0" width="64" height="64" filterUnits="userSpaceOnUse" color-interpolation-filters="sRGB">
<feFlood flood-opacity="0" result="BackgroundImageFix"/>
<feColorMatrix in="SourceAlpha" type="matrix" values="0 0 0 0 0 0 0 0 0 0 0 0 0 0 0 0 0 0 127 0" result="hardAlpha"/>
<feOffset dy="7"/>
<feGaussianBlur stdDeviation="6"/>
<feComposite in2="hardAlpha" operator="out"/>
<feColorMatrix type="matrix" values="0 0 0 0 0.12549 0 0 0 0 0.317647 0 0 0 0 0.537255 0 0 0 0.24 0"/>
<feBlend mode="normal" in2="BackgroundImageFix" result="effect1_dropShadow_2001_33"/>
<feBlend mode="normal" in="SourceGraphic" in2="effect1_dropShadow_2001_33" result="shape"/>
</filter>
<clipPath id="clip0_2001_33">
<rect width="16" height="16" fill="white" transform="translate(24 17)"/>
</clipPath>
</defs>
</svg>
