<svg width="40" height="40" viewBox="0 0 40 40" fill="none" xmlns="http://www.w3.org/2000/svg">
<ellipse cx="20" cy="20" rx="20" ry="20" transform="rotate(-180 20 20)" fill="white"/>
<path fill-rule="evenodd" clip-rule="evenodd" d="M18.286 17.979H20.762V19.2123C21.1187 18.503 22.0334 17.8657 23.4074 17.8657C26.0414 17.8657 26.6667 19.2777 26.6667 21.8683V26.6663H24V22.4583C24 20.983 23.6434 20.151 22.7354 20.151C21.476 20.151 20.9527 21.0477 20.9527 22.4577V26.6663H18.286V17.979ZM13.7134 26.553H16.38V17.8657H13.7134V26.553ZM16.762 15.033C16.7621 15.2565 16.7178 15.4778 16.6316 15.6841C16.5455 15.8903 16.4191 16.0773 16.26 16.2343C15.9376 16.5548 15.5012 16.7341 15.0467 16.733C14.593 16.7327 14.1576 16.5538 13.8347 16.235C13.6762 16.0775 13.5503 15.8902 13.4643 15.684C13.3782 15.4777 13.3338 15.2565 13.3334 15.033C13.3334 14.5817 13.5134 14.1497 13.8354 13.831C14.158 13.5118 14.5935 13.3328 15.0474 13.333C15.502 13.333 15.938 13.5123 16.26 13.831C16.5814 14.1497 16.762 14.5817 16.762 15.033Z" fill="#1D72D2"/>
</svg>
