<svg width="24" height="21" viewBox="0 0 24 21" fill="none" xmlns="http://www.w3.org/2000/svg">
<path d="M11.2752 3.95381L11.9983 4.71068L12.7213 3.95381C13.7257 2.90252 15.3501 1.61548 17.1077 1.61548C18.7626 1.61548 20.1078 2.18832 21.0368 3.11572C21.9657 4.04301 22.5388 5.3849 22.5388 7.03506C22.5388 8.82638 21.8407 10.3265 20.7186 11.7251C19.5774 13.1476 18.0484 14.4051 16.4425 15.721L16.4221 15.7376C14.9422 16.9497 13.3249 18.2743 12.0684 19.7594C12.0568 19.7729 12.0419 19.7784 12.0297 19.7784H11.9689C11.9557 19.7784 11.9402 19.7723 11.9288 19.7589L11.1666 20.406L11.9305 19.7608C10.6862 18.2875 9.08342 16.9728 7.61563 15.7689L7.55766 15.7213L7.55726 15.721C5.95088 14.4047 4.42217 13.1469 3.28129 11.7244C2.15961 10.3259 1.46191 8.82597 1.46191 7.03506C1.46191 5.3849 2.03505 4.04304 2.96404 3.11577C3.89316 2.18837 5.23857 1.61548 6.89408 1.61548C8.65009 1.61548 10.2701 2.90169 11.2752 3.95381Z" stroke="white" stroke-width="2"/>
</svg>
