<svg width="44" height="44" viewBox="0 0 44 44" fill="none" xmlns="http://www.w3.org/2000/svg">
<path d="M1.07695 24.6C-0.358983 23.164 -0.358983 20.8359 1.07695 19.4C2.51288 17.9641 4.84099 17.9641 6.27692 19.4L12.3435 25.4666C13.7795 26.9026 13.7795 29.2307 12.3435 30.6666C10.9076 32.1025 8.57951 32.1025 7.14358 30.6666L1.07695 24.6Z" fill="#1D72D2"/>
<path d="M19.4 1.07695C20.8359 -0.358983 23.1641 -0.358983 24.6 1.07695C26.0359 2.51288 26.0359 4.84099 24.6 6.27692L18.5334 12.3435C17.0974 13.7795 14.7693 13.7795 13.3334 12.3435C11.8975 10.9076 11.8975 8.57951 13.3334 7.14358L19.4 1.07695Z" fill="#1D72D2"/>
<path d="M25.5898 24.6C24.1539 23.164 24.1539 20.8359 25.5898 19.4C27.0258 17.9641 29.3539 17.9641 30.7898 19.4L36.8564 25.4666C38.2924 26.9026 38.2924 29.2307 36.8564 30.6666C35.4205 32.1025 33.0924 32.1025 31.6565 30.6666L25.5898 24.6Z" fill="#1D72D2"/>
<path d="M19.4 25.5898C20.8359 24.1539 23.1641 24.1539 24.6 25.5898C26.0359 27.0258 26.0359 29.3539 24.6 30.7898L18.5334 36.8564C17.0974 38.2924 14.7693 38.2924 13.3334 36.8564C11.8975 35.4205 11.8975 33.0924 13.3334 31.6565L19.4 25.5898Z" fill="#1D72D2"/>
<path d="M7.14357 18.5333C5.70763 17.0974 5.70763 14.7693 7.14357 13.3334C8.5795 11.8974 10.9076 11.8974 12.3435 13.3334L18.4102 19.4C19.8461 20.8359 19.8461 23.164 18.4102 24.6C16.9742 26.0359 14.6461 26.0359 13.2102 24.6L7.14357 18.5333Z" fill="#1D72D2"/>
<path d="M25.4666 7.14357C26.9026 5.70763 29.2307 5.70763 30.6666 7.14357C32.1025 8.5795 32.1025 10.9076 30.6666 12.3435L24.6 18.4102C23.164 19.8461 20.8359 19.8461 19.4 18.4102C17.9641 16.9742 17.9641 14.6461 19.4 13.2102L25.4666 7.14357Z" fill="#1D72D2"/>
<path d="M31.6565 18.5333C30.2205 17.0974 30.2205 14.7693 31.6565 13.3334C33.0924 11.8974 35.4205 11.8974 36.8564 13.3334L42.9231 19.4C44.359 20.8359 44.359 23.164 42.9231 24.6C41.4871 26.0359 39.159 26.0359 37.7231 24.6L31.6565 18.5333Z" fill="#1D72D2"/>
<path d="M25.4666 31.6565C26.9026 30.2205 29.2307 30.2205 30.6666 31.6565C32.1025 33.0924 32.1025 35.4205 30.6666 36.8564L24.6 42.9231C23.164 44.359 20.8359 44.359 19.4 42.9231C17.9641 41.4871 17.9641 39.159 19.4 37.7231L25.4666 31.6565Z" fill="#1D72D2"/>
</svg>
