<svg width="124" height="44" viewBox="0 0 124 44" fill="none" xmlns="http://www.w3.org/2000/svg">
<path d="M1.07695 24.6C-0.358983 23.164 -0.358983 20.8359 1.07695 19.4C2.51288 17.9641 4.84099 17.9641 6.27692 19.4L12.3435 25.4666C13.7795 26.9026 13.7795 29.2307 12.3435 30.6666C10.9076 32.1025 8.57951 32.1025 7.14358 30.6666L1.07695 24.6Z" fill="#1D72D2"/>
<path d="M19.4 1.07695C20.8359 -0.358983 23.1641 -0.358983 24.6 1.07695C26.0359 2.51288 26.0359 4.84099 24.6 6.27692L18.5334 12.3435C17.0974 13.7795 14.7693 13.7795 13.3334 12.3435C11.8975 10.9076 11.8975 8.57951 13.3334 7.14358L19.4 1.07695Z" fill="#1D72D2"/>
<path d="M25.5898 24.6C24.1539 23.164 24.1539 20.8359 25.5898 19.4C27.0258 17.9641 29.3539 17.9641 30.7898 19.4L36.8564 25.4666C38.2924 26.9026 38.2924 29.2307 36.8564 30.6666C35.4205 32.1025 33.0924 32.1025 31.6565 30.6666L25.5898 24.6Z" fill="#1D72D2"/>
<path d="M19.4 25.5898C20.8359 24.1539 23.1641 24.1539 24.6 25.5898C26.0359 27.0258 26.0359 29.3539 24.6 30.7898L18.5334 36.8564C17.0974 38.2924 14.7693 38.2924 13.3334 36.8564C11.8975 35.4205 11.8975 33.0924 13.3334 31.6565L19.4 25.5898Z" fill="#1D72D2"/>
<path d="M7.14357 18.5333C5.70763 17.0974 5.70763 14.7693 7.14357 13.3334C8.5795 11.8974 10.9076 11.8974 12.3435 13.3334L18.4102 19.4C19.8461 20.8359 19.8461 23.164 18.4102 24.6C16.9742 26.0359 14.6461 26.0359 13.2102 24.6L7.14357 18.5333Z" fill="#1D72D2"/>
<path d="M25.4666 7.14357C26.9026 5.70763 29.2307 5.70763 30.6666 7.14357C32.1025 8.5795 32.1025 10.9076 30.6666 12.3435L24.6 18.4102C23.164 19.8461 20.8359 19.8461 19.4 18.4102C17.9641 16.9742 17.9641 14.6461 19.4 13.2102L25.4666 7.14357Z" fill="#1D72D2"/>
<path d="M31.6565 18.5333C30.2205 17.0974 30.2205 14.7693 31.6565 13.3334C33.0924 11.8974 35.4205 11.8974 36.8564 13.3334L42.9231 19.4C44.359 20.8359 44.359 23.164 42.9231 24.6C41.4871 26.0359 39.159 26.0359 37.7231 24.6L31.6565 18.5333Z" fill="#1D72D2"/>
<path d="M25.4666 31.6565C26.9026 30.2205 29.2307 30.2205 30.6666 31.6565C32.1025 33.0924 32.1025 35.4205 30.6666 36.8564L24.6 42.9231C23.164 44.359 20.8359 44.359 19.4 42.9231C17.9641 41.4871 17.9641 39.159 19.4 37.7231L25.4666 31.6565Z" fill="#1D72D2"/>
<path d="M64.442 17L60.194 11.42V17H57.116V4.364H60.194V9.908L64.406 4.364H68.024L63.128 10.556L68.204 17H64.442ZM75.8408 6.848C76.9928 6.848 77.9168 7.232 78.6128 8C79.3088 8.756 79.6568 9.8 79.6568 11.132V17H76.5968V11.546C76.5968 10.874 76.4228 10.352 76.0748 9.98C75.7268 9.608 75.2588 9.422 74.6708 9.422C74.0828 9.422 73.6148 9.608 73.2668 9.98C72.9188 10.352 72.7448 10.874 72.7448 11.546V17H69.6668V3.68H72.7448V8.306C73.0568 7.862 73.4828 7.508 74.0228 7.244C74.5628 6.98 75.1688 6.848 75.8408 6.848ZM81.1837 11.96C81.1837 10.928 81.3757 10.022 81.7597 9.242C82.1557 8.462 82.6897 7.862 83.3617 7.442C84.0337 7.022 84.7837 6.812 85.6117 6.812C86.3197 6.812 86.9377 6.956 87.4657 7.244C88.0057 7.532 88.4197 7.91 88.7077 8.378V6.956H91.7857V17H88.7077V15.578C88.4077 16.046 87.9877 16.424 87.4477 16.712C86.9197 17 86.3017 17.144 85.5937 17.144C84.7777 17.144 84.0337 16.934 83.3617 16.514C82.6897 16.082 82.1557 15.476 81.7597 14.696C81.3757 13.904 81.1837 12.992 81.1837 11.96ZM88.7077 11.978C88.7077 11.21 88.4917 10.604 88.0597 10.16C87.6397 9.716 87.1237 9.494 86.5117 9.494C85.8997 9.494 85.3777 9.716 84.9457 10.16C84.5257 10.592 84.3157 11.192 84.3157 11.96C84.3157 12.728 84.5257 13.34 84.9457 13.796C85.3777 14.24 85.8997 14.462 86.5117 14.462C87.1237 14.462 87.6397 14.24 88.0597 13.796C88.4917 13.352 88.7077 12.746 88.7077 11.978ZM100.132 6.848C101.308 6.848 102.244 7.232 102.94 8C103.648 8.756 104.002 9.8 104.002 11.132V17H100.942V11.546C100.942 10.874 100.768 10.352 100.42 9.98C100.072 9.608 99.6045 9.422 99.0165 9.422C98.4285 9.422 97.9605 9.608 97.6125 9.98C97.2645 10.352 97.0905 10.874 97.0905 11.546V17H94.0125V6.956H97.0905V8.288C97.4025 7.844 97.8225 7.496 98.3505 7.244C98.8785 6.98 99.4725 6.848 100.132 6.848ZM62.846 34.83H58.59L57.806 37H56.462L59.99 27.298H61.46L64.974 37H63.63L62.846 34.83ZM62.482 33.794L60.718 28.866L58.954 33.794H62.482ZM66.0356 33.15C66.0356 32.3567 66.1943 31.666 66.5116 31.078C66.8289 30.4807 67.2676 30.0187 67.8276 29.692C68.3969 29.3653 69.0456 29.202 69.7736 29.202C70.7163 29.202 71.4909 29.4307 72.0976 29.888C72.7136 30.3453 73.1196 30.98 73.3156 31.792H71.9436C71.8129 31.3253 71.5563 30.9567 71.1736 30.686C70.8003 30.4153 70.3336 30.28 69.7736 30.28C69.0456 30.28 68.4576 30.532 68.0096 31.036C67.5616 31.5307 67.3376 32.2353 67.3376 33.15C67.3376 34.074 67.5616 34.788 68.0096 35.292C68.4576 35.796 69.0456 36.048 69.7736 36.048C70.3336 36.048 70.8003 35.9173 71.1736 35.656C71.5469 35.3947 71.8036 35.0213 71.9436 34.536H73.3156C73.1103 35.32 72.6996 35.95 72.0836 36.426C71.4676 36.8927 70.6976 37.126 69.7736 37.126C69.0456 37.126 68.3969 36.9627 67.8276 36.636C67.2676 36.3093 66.8289 35.8473 66.5116 35.25C66.1943 34.6527 66.0356 33.9527 66.0356 33.15ZM74.5395 33.136C74.5395 32.352 74.6982 31.666 75.0155 31.078C75.3328 30.4807 75.7668 30.0187 76.3175 29.692C76.8775 29.3653 77.4982 29.202 78.1795 29.202C78.8515 29.202 79.4348 29.3467 79.9295 29.636C80.4242 29.9253 80.7928 30.2893 81.0355 30.728V29.328H82.3235V37H81.0355V35.572C80.7835 36.02 80.4055 36.3933 79.9015 36.692C79.4068 36.9813 78.8282 37.126 78.1655 37.126C77.4842 37.126 76.8682 36.958 76.3175 36.622C75.7668 36.286 75.3328 35.8147 75.0155 35.208C74.6982 34.6013 74.5395 33.9107 74.5395 33.136ZM81.0355 33.15C81.0355 32.5713 80.9188 32.0673 80.6855 31.638C80.4522 31.2087 80.1348 30.882 79.7335 30.658C79.3415 30.4247 78.9075 30.308 78.4315 30.308C77.9555 30.308 77.5215 30.42 77.1295 30.644C76.7375 30.868 76.4248 31.1947 76.1915 31.624C75.9582 32.0533 75.8415 32.5573 75.8415 33.136C75.8415 33.724 75.9582 34.2373 76.1915 34.676C76.4248 35.1053 76.7375 35.4367 77.1295 35.67C77.5215 35.894 77.9555 36.006 78.4315 36.006C78.9075 36.006 79.3415 35.894 79.7335 35.67C80.1348 35.4367 80.4522 35.1053 80.6855 34.676C80.9188 34.2373 81.0355 33.7287 81.0355 33.15ZM84.0004 33.136C84.0004 32.352 84.1591 31.666 84.4764 31.078C84.7938 30.4807 85.2278 30.0187 85.7784 29.692C86.3384 29.3653 86.9638 29.202 87.6544 29.202C88.2518 29.202 88.8071 29.342 89.3204 29.622C89.8338 29.8927 90.2258 30.252 90.4964 30.7V26.64H91.7844V37H90.4964V35.558C90.2444 36.0153 89.8711 36.3933 89.3764 36.692C88.8818 36.9813 88.3031 37.126 87.6404 37.126C86.9591 37.126 86.3384 36.958 85.7784 36.622C85.2278 36.286 84.7938 35.8147 84.4764 35.208C84.1591 34.6013 84.0004 33.9107 84.0004 33.136ZM90.4964 33.15C90.4964 32.5713 90.3798 32.0673 90.1464 31.638C89.9131 31.2087 89.5958 30.882 89.1944 30.658C88.8024 30.4247 88.3684 30.308 87.8924 30.308C87.4164 30.308 86.9824 30.42 86.5904 30.644C86.1984 30.868 85.8858 31.1947 85.6524 31.624C85.4191 32.0533 85.3024 32.5573 85.3024 33.136C85.3024 33.724 85.4191 34.2373 85.6524 34.676C85.8858 35.1053 86.1984 35.4367 86.5904 35.67C86.9824 35.894 87.4164 36.006 87.8924 36.006C88.3684 36.006 88.8024 35.894 89.1944 35.67C89.5958 35.4367 89.9131 35.1053 90.1464 34.676C90.3798 34.2373 90.4964 33.7287 90.4964 33.15ZM100.937 32.87C100.937 33.1127 100.923 33.3693 100.895 33.64H94.7634C94.81 34.396 95.0667 34.9887 95.5334 35.418C96.0094 35.838 96.5834 36.048 97.2554 36.048C97.806 36.048 98.2634 35.922 98.6274 35.67C99.0007 35.4087 99.262 35.0633 99.4114 34.634H100.783C100.578 35.3713 100.167 35.9733 99.5514 36.44C98.9354 36.8973 98.17 37.126 97.2554 37.126C96.5274 37.126 95.874 36.9627 95.2954 36.636C94.726 36.3093 94.278 35.8473 93.9514 35.25C93.6247 34.6433 93.4614 33.9433 93.4614 33.15C93.4614 32.3567 93.62 31.6613 93.9374 31.064C94.2547 30.4667 94.698 30.0093 95.2674 29.692C95.846 29.3653 96.5087 29.202 97.2554 29.202C97.9834 29.202 98.6274 29.3607 99.1874 29.678C99.7474 29.9953 100.177 30.434 100.475 30.994C100.783 31.5447 100.937 32.17 100.937 32.87ZM99.6214 32.604C99.6214 32.1187 99.514 31.7033 99.2994 31.358C99.0847 31.0033 98.7907 30.7373 98.4174 30.56C98.0534 30.3733 97.6474 30.28 97.1994 30.28C96.5554 30.28 96.0047 30.4853 95.5474 30.896C95.0994 31.3067 94.8427 31.876 94.7774 32.604H99.6214ZM111.845 29.188C112.442 29.188 112.974 29.314 113.441 29.566C113.908 29.8087 114.276 30.1773 114.547 30.672C114.818 31.1667 114.953 31.7687 114.953 32.478V37H113.693V32.66C113.693 31.8947 113.502 31.3113 113.119 30.91C112.746 30.4993 112.237 30.294 111.593 30.294C110.93 30.294 110.403 30.5087 110.011 30.938C109.619 31.358 109.423 31.9693 109.423 32.772V37H108.163V32.66C108.163 31.8947 107.972 31.3113 107.589 30.91C107.216 30.4993 106.707 30.294 106.063 30.294C105.4 30.294 104.873 30.5087 104.481 30.938C104.089 31.358 103.893 31.9693 103.893 32.772V37H102.619V29.328H103.893V30.434C104.145 30.0327 104.481 29.7247 104.901 29.51C105.33 29.2953 105.802 29.188 106.315 29.188C106.959 29.188 107.528 29.3327 108.023 29.622C108.518 29.9113 108.886 30.336 109.129 30.896C109.344 30.3547 109.698 29.9347 110.193 29.636C110.688 29.3373 111.238 29.188 111.845 29.188ZM123.651 29.328L119.031 40.612H117.715L119.227 36.916L116.133 29.328H117.547L119.955 35.544L122.335 29.328H123.651Z" fill="#1D72D2"/>
</svg>
