<svg width="208" height="46" viewBox="0 0 208 46" fill="none" xmlns="http://www.w3.org/2000/svg">
<circle cx="23" cy="23" r="22.5" stroke="white"/>
<path d="M22.9953 14.6667C21.3471 14.6667 19.7359 15.1554 18.3655 16.0711C16.9951 16.9868 15.927 18.2883 15.2963 19.811C14.6655 21.3337 14.5005 23.0093 14.8221 24.6258C15.1436 26.2423 15.9373 27.7271 17.1027 28.8926C18.2681 30.058 19.753 30.8517 21.3695 31.1732C22.986 31.4948 24.6616 31.3297 26.1843 30.699C27.707 30.0683 29.0085 29.0002 29.9242 27.6298C30.8399 26.2594 31.3286 24.6482 31.3286 23C31.3287 21.9056 31.1132 20.822 30.6944 19.8109C30.2757 18.7998 29.6619 17.8811 28.888 17.1073C28.1142 16.3334 27.1955 15.7196 26.1844 15.3008C25.1733 14.8821 24.0896 14.6666 22.9953 14.6667ZM25.6449 27.2937C25.6137 27.3715 25.5662 27.4417 25.5057 27.4997C25.4451 27.5576 25.3729 27.6019 25.2938 27.6297C25.2147 27.6574 25.1307 27.6679 25.0472 27.6605C24.9637 27.6531 24.8828 27.6279 24.8099 27.5867L22.5476 25.8288L21.0957 27.1684C21.062 27.1932 21.0226 27.2093 20.9811 27.2149C20.9396 27.2206 20.8973 27.2157 20.8582 27.2008L21.1365 24.7104L21.1454 24.7175L21.1511 24.6683C21.1511 24.6683 25.222 20.9621 25.3878 20.8042C25.5557 20.6467 25.5003 20.6125 25.5003 20.6125C25.5099 20.4204 25.199 20.6125 25.199 20.6125L19.8053 24.0825L17.559 23.3175C17.559 23.3175 17.214 23.1938 17.1815 22.9217C17.1474 22.6517 17.5703 22.505 17.5703 22.505L26.5011 18.9571C26.5011 18.9571 27.2353 18.63 27.2353 19.1717L25.6449 27.2937Z" fill="white"/>
<circle cx="77" cy="23" r="23" fill="white"/>
<path d="M79.6 17.4333H81.1667V14.7833C80.4081 14.7044 79.646 14.6655 78.8833 14.6667C76.6167 14.6667 75.0667 16.05 75.0667 18.5833V20.7667H72.5083V23.7333H75.0667V31.3333H78.1333V23.7333H80.6833L81.0667 20.7667H78.1333V18.875C78.1333 18 78.3667 17.4333 79.6 17.4333Z" fill="#1D72D2"/>
<circle cx="131" cy="23" r="22.5" stroke="white"/>
<path d="M138.058 14.6667H123.942C123.783 14.6645 123.625 14.6936 123.478 14.7523C123.331 14.8109 123.196 14.8981 123.082 15.0088C122.969 15.1194 122.878 15.2514 122.815 15.3972C122.752 15.543 122.719 15.6997 122.717 15.8583V30.1417C122.719 30.3004 122.752 30.4571 122.815 30.6028C122.878 30.7486 122.969 30.8806 123.082 30.9913C123.196 31.1019 123.331 31.1891 123.478 31.2478C123.625 31.3065 123.783 31.3356 123.942 31.3333H138.058C138.217 31.3356 138.375 31.3065 138.522 31.2478C138.669 31.1891 138.804 31.1019 138.918 30.9913C139.031 30.8806 139.122 30.7486 139.185 30.6028C139.248 30.4571 139.281 30.3004 139.283 30.1417V15.8583C139.281 15.6997 139.248 15.543 139.185 15.3972C139.122 15.2514 139.031 15.1194 138.918 15.0088C138.804 14.8981 138.669 14.8109 138.522 14.7523C138.375 14.6936 138.217 14.6645 138.058 14.6667ZM127.742 28.6167H125.242V21.1167H127.742V28.6167ZM126.492 20.0667C126.147 20.0667 125.816 19.9297 125.572 19.6859C125.329 19.4421 125.192 19.1115 125.192 18.7667C125.192 18.4219 125.329 18.0912 125.572 17.8474C125.816 17.6036 126.147 17.4667 126.492 17.4667C126.675 17.4459 126.86 17.4641 127.036 17.5199C127.211 17.5758 127.373 17.6681 127.511 17.7908C127.648 17.9135 127.758 18.0639 127.833 18.2321C127.909 18.4003 127.947 18.5824 127.947 18.7667C127.947 18.9509 127.909 19.1331 127.833 19.3013C127.758 19.4694 127.648 19.6198 127.511 19.7425C127.373 19.8653 127.211 19.9576 127.036 20.0134C126.86 20.0693 126.675 20.0874 126.492 20.0667ZM136.758 28.6167H134.258V24.5917C134.258 23.5833 133.9 22.925 132.992 22.925C132.711 22.9271 132.437 23.0152 132.207 23.1777C131.978 23.3401 131.804 23.5689 131.708 23.8333C131.643 24.0292 131.615 24.2355 131.625 24.4417V28.6083H129.125C129.125 28.6083 129.125 21.7917 129.125 21.1083H131.625V22.1667C131.852 21.7726 132.182 21.4479 132.58 21.2277C132.978 21.0074 133.429 20.8999 133.883 20.9167C135.55 20.9167 136.758 21.9917 136.758 24.3V28.6167Z" fill="white"/>
<circle cx="185" cy="23" r="22.5" stroke="white"/>
<path d="M194.167 21.0917C194.208 19.8989 193.947 18.715 193.408 17.65C193.043 17.213 192.536 16.9181 191.975 16.8167C189.656 16.6063 187.328 16.52 185 16.5583C182.681 16.5183 180.361 16.6017 178.05 16.8083C177.593 16.8914 177.17 17.1057 176.833 17.425C176.083 18.1167 176 19.3 175.917 20.3C175.796 22.098 175.796 23.902 175.917 25.7C175.941 26.2628 176.025 26.8215 176.167 27.3667C176.267 27.7875 176.47 28.1769 176.758 28.5C177.098 28.8362 177.53 29.0627 178 29.15C179.797 29.3717 181.607 29.4637 183.417 29.425C186.333 29.4667 188.892 29.425 191.917 29.1917C192.398 29.1097 192.843 28.8829 193.192 28.5417C193.425 28.3082 193.599 28.0226 193.7 27.7083C193.998 26.7938 194.144 25.8367 194.133 24.875C194.167 24.4083 194.167 21.5917 194.167 21.0917ZM183.117 25.375V20.2167L188.05 22.8083C186.667 23.575 184.842 24.4417 183.117 25.375Z" fill="white"/>
</svg>
