<svg width="50" height="50" viewBox="0 0 50 50" fill="none" xmlns="http://www.w3.org/2000/svg">
<path d="M32.5398 18.0799C31.5372 17.0843 30.3458 16.299 29.0355 15.7701C27.7253 15.2412 26.3226 14.9794 24.9098 14.9999C22.2576 14.9933 19.7115 16.0405 17.8314 17.9112C15.9514 19.7818 14.8914 22.3227 14.8848 24.9749C14.8782 27.6271 15.9254 30.1732 17.7961 32.0533C19.6667 33.9333 22.2076 34.9933 24.8598 34.9999C25.4313 35.0096 25.9898 34.8293 26.4477 34.4872C26.9057 34.1451 27.237 33.6607 27.3898 33.1099C27.4872 32.7121 27.4862 32.2967 27.3869 31.8994C27.2875 31.5021 27.0929 31.135 26.8198 30.8299C26.7566 30.758 26.7154 30.6696 26.7011 30.575C26.6867 30.4804 26.6998 30.3837 26.7387 30.2963C26.7777 30.2089 26.8409 30.1345 26.9208 30.082C27.0008 30.0295 27.0941 30.001 27.1898 29.9999H28.8398C30.3927 30.0072 31.8909 29.4266 33.0336 28.3749C34.1762 27.3232 34.8786 25.8781 34.9998 24.3299C35.037 23.1755 34.838 22.0257 34.415 20.951C33.992 19.8762 33.3539 18.8992 32.5398 18.0799ZM19.8398 27.7399C19.5943 27.9068 19.3047 27.997 19.0079 27.9993C18.711 28.0015 18.4202 27.9156 18.1722 27.7524C17.9242 27.5892 17.7302 27.3561 17.6147 27.0826C17.4993 26.8091 17.4676 26.5075 17.5236 26.216C17.5797 25.9245 17.721 25.6562 17.9297 25.445C18.1383 25.2338 18.4049 25.0893 18.6958 25.0298C18.9866 24.9702 19.2886 24.9983 19.5634 25.1105C19.8383 25.2227 20.0737 25.4139 20.2398 25.6599C20.3511 25.8224 20.4291 26.0054 20.4693 26.1982C20.5094 26.391 20.511 26.5899 20.4738 26.7834C20.4366 26.9768 20.3614 27.1609 20.2526 27.3251C20.1437 27.4893 20.0034 27.6303 19.8398 27.7399ZM21.2998 22.2499C21.1575 22.5134 20.9396 22.7283 20.6741 22.8669C20.4087 23.0055 20.1078 23.0615 19.8102 23.0276C19.5127 22.9937 19.2321 22.8716 19.0045 22.6768C18.777 22.4821 18.613 22.2237 18.5336 21.935C18.4542 21.6462 18.463 21.3403 18.559 21.0566C18.6549 20.7729 18.8336 20.5245 19.072 20.3432C19.3104 20.1619 19.5976 20.0562 19.8966 20.0396C20.1956 20.0229 20.4928 20.0962 20.7498 20.2499C21.0814 20.4482 21.3237 20.7669 21.4262 21.1395C21.5287 21.5121 21.4834 21.9099 21.2998 22.2499ZM23.9998 19.9999C23.7031 19.9999 23.4131 19.9119 23.1664 19.7471C22.9198 19.5823 22.7275 19.348 22.614 19.0739C22.5004 18.7998 22.4707 18.4982 22.5286 18.2073C22.5865 17.9163 22.7294 17.649 22.9391 17.4392C23.1489 17.2295 23.4162 17.0866 23.7072 17.0287C23.9981 16.9708 24.2997 17.0005 24.5738 17.1141C24.8479 17.2276 25.0822 17.4199 25.247 17.6665C25.4118 17.9132 25.4998 18.2032 25.4998 18.4999C25.4998 18.8977 25.3418 19.2793 25.0605 19.5606C24.7792 19.8419 24.3976 19.9999 23.9998 19.9999ZM29.7498 20.7999C29.4928 20.9536 29.1956 21.0269 28.8966 21.0102C28.5976 20.9936 28.3104 20.8879 28.072 20.7066C27.8336 20.5253 27.6549 20.2769 27.559 19.9932C27.463 19.7095 27.4542 19.4036 27.5336 19.1148C27.613 18.8261 27.777 18.5677 28.0045 18.373C28.2321 18.1782 28.5127 18.0561 28.8102 18.0222C29.1078 17.9883 29.4087 18.0443 29.6741 18.1829C29.9396 18.3215 30.1575 18.5364 30.2998 18.7999C30.4834 19.1399 30.5287 19.5377 30.4262 19.9103C30.3237 20.2829 30.0814 20.6016 29.7498 20.7999Z" fill="#1D72D2"/>
</svg>
